<?xml version="1.0" standalone="no"?>
<!DOCTYPE svg PUBLIC "-//W3C//DTD SVG 20010904//EN"
 "http://www.w3.org/TR/2001/REC-SVG-20010904/DTD/svg10.dtd">
<svg version="1.0" xmlns="http://www.w3.org/2000/svg"
 width="369.000000pt" height="369.000000pt" viewBox="0 0 369.000000 369.000000"
 preserveAspectRatio="xMidYMid meet">
<metadata>
Created by potrace 1.14, written by Peter Selinger 2001-2017
</metadata>
<g transform="translate(0.000000,369.000000) scale(0.100000,-0.100000)"
fill="#000000" stroke="none">
<path d="M1625 3259 c-424 -143 -698 -241 -729 -260 -43 -26 -67 -32 -201 -49
-165 -20 -225 -41 -277 -97 -42 -45 -72 -112 -76 -172 -6 -86 255 -2245 277
-2297 41 -92 136 -161 235 -170 72 -7 1450 159 1501 180 92 39 156 118 176
217 l11 57 302 102 c323 110 358 124 408 169 58 50 83 114 83 206 0 79 -5 95
-354 1120 -194 572 -361 1056 -372 1076 -43 86 -155 150 -258 148 -32 0 -248
-68 -726 -230z m417 -1050 c31 -17 50 -71 37 -108 -11 -31 -52 -61 -84 -61
-34 0 -75 30 -83 63 -22 82 56 146 130 106z m577 -79 c41 -6 76 -12 79 -15 3
-3 7 -52 10 -109 6 -131 -14 -226 -71 -339 -53 -107 -169 -225 -274 -280 -255
-133 -557 -92 -766 103 -65 61 -147 176 -147 207 0 18 168 163 264 228 l83 57
27 -27 c70 -70 194 -86 286 -37 64 33 116 102 125 167 6 38 11 44 34 48 53 8
278 6 350 -3z m-1362 -872 c78 -231 115 -354 107 -356 -24 -6 -147 29 -217 62
-147 68 -262 181 -332 327 -41 86 -42 95 -12 120 80 67 292 198 323 199 6 0
65 -159 131 -352z"/>
</g>
</svg>
